<svg version="1.1" viewBox="0 0 48 48" xmlns="http://www.w3.org/2000/svg"><path d="m41.462 11.11s-4.9649-3.8866-10.826-4.3305l-0.52832 1.0577c5.2984 1.2981 7.73 3.1537 10.272 5.438-4.3814-2.2367-8.7043-4.3305-16.239-4.3305s-11.858 2.0938-16.239 4.3305c2.542-2.2843 5.4348-4.3478 10.272-5.438l-0.52832-1.0577c-6.1493 0.57921-10.826 4.3305-10.826 4.3305s-5.5441 8.0396-6.4958 23.818c5.5864 6.4449 14.074 6.4958 14.074 6.4958l1.7755-2.3645c-3.014-1.048-6.4135-2.9177-9.3539-6.2966 3.5055 2.6524 8.7963 5.4131 17.322 5.4131s13.816-2.7607 17.322-5.4131c-2.9393 3.3789-6.3388 5.2486-9.3539 6.2966l1.7755 2.3645s8.4878-0.05088 14.074-6.4958c-0.95163-15.778-6.4958-23.818-6.4958-23.818zm-24.359 19.487c-2.0938 0-3.7892-1.9379-3.7892-4.3305s1.6954-4.3305 3.7892-4.3305 3.7892 1.9379 3.7892 4.3305-1.6954 4.3305-3.7892 4.3305zm14.074 0c-2.0938 0-3.7892-1.9379-3.7892-4.3305s1.6954-4.3305 3.7892-4.3305 3.7892 1.9379 3.7892 4.3305-1.6954 4.3305-3.7892 4.3305z" stroke-width="1.0826"/></svg>
