<svg version="1.1" viewBox="0 0 48 48" xmlns="http://www.w3.org/2000/svg"><g transform="matrix(1.04866 0 0 1.04866-511.61-528.36)" stroke-width="1.317"><path transform="matrix(.9536 0 0 .9536 487.87 503.84)" d="m23.996-0.0019531c-13.296 0-24 10.704-24 24s10.704 24 24 24 24-10.704 24-24-10.704-24-24-24zm-2.9141 11.414h3.8282l-1.6445 6.5918h4.5215l1.6602-6.5918h3.7832l-1.6602 6.5918h4.7422v3.6465h-5.6523l-1.1816 4.6914h4.8633v3.6816h-5.7539l-1.6426 6.5586h-3.7852l1.6445-6.5586h-4.5195l-1.6445 6.5586h-3.8184l1.6445-6.5586h-4.7773v-3.6816h5.6094l1.1992-4.6914h-4.8457v-3.6465h5.7871l1.6426-6.5918zm1.2324 10.238-1.1992 4.6914h4.5215l1.1973-4.6914h-4.5195z" stroke-width="2.2581"/></g></svg>
