<svg enable-background="new 0 0 512.005 512.005" version="1.1" viewBox="0 0 512 512" xml:space="preserve" xmlns="http://www.w3.org/2000/svg"><g clip-rule="evenodd" fill-rule="evenodd">
<path d="m179.57 39.077c0-16.396 13.319-29.687 29.749-29.687 111.36 0 201.63 90.085 201.63 201.21 0 16.395-13.319 29.687-29.749 29.687s-29.749-13.292-29.749-29.687c0-78.334-63.635-141.84-142.13-141.84-16.43 0-29.749-13.292-29.749-29.687z"/><path d="m470.7 180.91c16.43 0 29.748 13.291 29.748 29.687 0 111.13-90.272 201.21-201.63 201.21-16.43 0-29.749-13.292-29.749-29.687 0-16.396 13.319-29.687 29.749-29.687 78.498 0 142.13-63.503 142.13-141.84 0-16.396 13.319-29.687 29.749-29.687z"/><path d="m328.56 472.93c0 16.396-13.319 29.687-29.749 29.687-111.36 0-201.63-90.086-201.63-201.21 0-16.396 13.319-29.687 29.749-29.687s29.749 13.291 29.749 29.687c0 78.334 63.635 141.84 142.13 141.84 16.43 0 29.749 13.292 29.749 29.687z"/><path d="m36.969 331.09c-16.429 0-29.748-13.291-29.748-29.687-7.248e-4 -111.13 90.272-201.21 201.63-201.21 16.429 0 29.749 13.292 29.749 29.687 0 16.396-13.319 29.687-29.749 29.687-78.498 0-142.13 63.503-142.13 141.84 0 16.396-13.319 29.687-29.749 29.687z"/></g></svg>
