<svg width="256px" height="256px" preserveAspectRatio="xMidYMid" version="1.1" viewBox="0 0 256 256" xmlns="http://www.w3.org/2000/svg"><path d="m243.75 73.364c-8.454-18.258-20.692-33.617-36.9-46.516 0.432 8.756 1.374 27.484 1.374 27.484s1.009 1.327 1.42 1.901c16.379 22.876 22.365 48.231 16.909 75.771-10.94 55.222-64.771 88.91-119.32 75.138-47.892-12.091-79.878-61.06-70.821-109.61 7.15-38.327 29.802-63.859 66.585-76.833l1.333-0.504 1.046-0.774c4.458-6.304 8.808-12.685 13.449-19.422-55.747 2.762-111.81 47.488-118.24 115.52-6.216 65.832 38.169 124.54 101.6 137.42 66.096 13.425 129.02-25.57 148.03-87.976 9.508-31.206 7.283-61.924-6.46-91.606zm-157.31 41.172c2.788 26.487 25.746 44.538 52.303 41.603 26.092-2.884 45.166-28.409 40.227-54.232-3.85-20.134-8.105-40.19-12.188-60.279-1.689-8.313-3.398-16.623-5.191-25.391-0.706 0.621-1.034 0.883-1.333 1.176-8.94 8.764-17.875 17.533-26.815 26.297-10.886 10.673-21.757 21.36-32.669 32.006-10.944 10.677-15.926 23.707-14.334 38.82z"/></svg>
