<svg enable-background="new 0 0 2228.833 2073.333" version="1.1" viewBox="0 0 2228.8 2073.3" xml:space="preserve" xmlns="http://www.w3.org/2000/svg"><g stroke-width=".71414">
<path d="m1744.3 812.83h411.14c38.843 0 70.331 31.488 70.331 70.331v374.49c0 142.76-115.73 258.49-258.49 258.49h-1.2219c-142.76 0.02-258.5-115.69-258.52-258.45v-408.11c6e-4 -20.301 16.457-36.758 36.758-36.758z"/>
<circle cx="2022.1" cy="572.23" r="166.57"/>
<circle cx="1503.9" cy="498.19" r="240.61"/>
<path d="m1824.7 812.83h-678.66c-38.38 0.94984-68.741 32.801-67.851 71.183v427.13c-5.3596 230.32 176.86 421.46 407.18 427.1 230.32-5.6367 412.54-196.77 407.18-427.1v-427.13c0.8891-38.382-29.471-70.233-67.851-71.183z"/>
</g>
<path d="m130.32 136.79c-47.435 0.1716-117.14 64.68-117.14 144.47v1445c0 79.785 81.065 147.48 128.5 147.31l773.86-2.8408c47.435-0.1741 128.5-64.68 128.5-144.47v-1445c0-79.785-81.065-147.48-128.5-147.31zm2.8894 381.34h766.71v153.85h-291.25v793.09h-185.56v-793.09h-289.9z" stroke-width="1.1724"/>
</svg>
