<?xml version="1.0" encoding="UTF-8" standalone="no"?>
<svg
   xmlns:dc="http://purl.org/dc/elements/1.1/"
   xmlns:cc="http://creativecommons.org/ns#"
   xmlns:rdf="http://www.w3.org/1999/02/22-rdf-syntax-ns#"
   xmlns:svg="http://www.w3.org/2000/svg"
   xmlns="http://www.w3.org/2000/svg"
   xmlns:sodipodi="http://sodipodi.sourceforge.net/DTD/sodipodi-0.dtd"
   xmlns:inkscape="http://www.inkscape.org/namespaces/inkscape"
   enable-background="new 0 0 2228.833 2073.333"
   version="1.1"
   viewBox="0 0 2228.8 2073.3"
   xml:space="preserve"
   id="svg21"
   sodipodi:docname="msteams.svg"
   inkscape:version="0.92.5 (2060ec1f9f, 2020-04-08)"><metadata
   id="metadata27"><rdf:RDF><cc:Work
       rdf:about=""><dc:format>image/svg+xml</dc:format><dc:type
         rdf:resource="http://purl.org/dc/dcmitype/StillImage" /></cc:Work></rdf:RDF></metadata><defs
   id="defs25" /><sodipodi:namedview
   pagecolor="#ffffff"
   bordercolor="#666666"
   borderopacity="1"
   objecttolerance="10"
   gridtolerance="10"
   guidetolerance="10"
   inkscape:pageopacity="0"
   inkscape:pageshadow="2"
   inkscape:window-width="1920"
   inkscape:window-height="1051"
   id="namedview23"
   showgrid="false"
   inkscape:zoom="0.11382819"
   inkscape:cx="1114.4"
   inkscape:cy="1036.65"
   inkscape:window-x="0"
   inkscape:window-y="-37"
   inkscape:window-maximized="1"
   inkscape:current-layer="svg21" /><g
   stroke-width=".71414"
   id="g10"
   style="fill:#000000;fill-opacity:1">
<path
   d="m1744.3 812.83h411.14c38.843 0 70.331 31.488 70.331 70.331v374.49c0 142.76-115.73 258.49-258.49 258.49h-1.2219c-142.76 0.02-258.5-115.69-258.52-258.45v-408.11c6e-4 -20.301 16.457-36.758 36.758-36.758z"
   fill="#5059c9"
   id="path2"
   style="fill:#000000;fill-opacity:1" />
<circle
   cx="2022.1"
   cy="572.23"
   r="166.57"
   fill="#5059c9"
   id="circle4"
   style="fill:#000000;fill-opacity:1" />
<circle
   cx="1503.9"
   cy="498.19"
   r="240.61"
   fill="#7b83eb"
   id="circle6"
   style="fill:#000000;fill-opacity:1" />
<path
   d="m1824.7 812.83h-678.66c-38.38 0.94984-68.741 32.801-67.851 71.183v427.13c-5.3596 230.32 176.86 421.46 407.18 427.1 230.32-5.6367 412.54-196.77 407.18-427.1v-427.13c0.8891-38.382-29.471-70.233-67.851-71.183z"
   fill="#7b83eb"
   id="path8"
   style="fill:#000000;fill-opacity:1" />
</g><linearGradient
   id="a"
   x1="198.1"
   x2="942.23"
   y1="1683.1"
   y2="394.26"
   gradientTransform="matrix(.904 0 0 -1.5205 13.178 2583.1)"
   gradientUnits="userSpaceOnUse">
	<stop
   stop-color="#5A62C3"
   offset="0"
   id="stop12" />
	<stop
   stop-color="#4D55BD"
   offset=".5"
   id="stop14" />
	<stop
   stop-color="#3940AB"
   offset="1"
   id="stop16" />
</linearGradient>
<path
   d="m130.32 136.79c-47.435 0.1716-117.14 64.68-117.14 144.47v1445c0 79.785 81.065 147.48 128.5 147.31l773.86-2.8408c47.435-0.1741 128.5-64.68 128.5-144.47v-1445c0-79.785-81.065-147.48-128.5-147.31zm2.8894 381.34h766.71v153.85h-291.25v793.09h-185.56v-793.09h-289.9z"
   fill="url(#a)"
   stroke-width="1.1724"
   id="path19"
   style="fill:#000000;fill-opacity:1" />
</svg>