<svg width="32" height="32" version="1.1" viewBox="0 0 32 32" xmlns="http://www.w3.org/2000/svg"><path d="m1 2c1.1805 1.6527 2.0313 4.8301 2.4941 8.4883a15 10 0 0 0-2.4941 5.5117 15 10 0 0 0 2.6348 5.6406c-0.38885 3.604-1.2347 6.7259-2.6348 8.3594 4.0691 0 7.7213-1.7459 10.279-4.5176a15 10 0 0 0 4.7207 0.51758 15 10 0 0 0 15-10 15 10 0 0 0-15-10 15 10 0 0 0-4.7168 0.52148c-2.5581-2.7741-6.2122-4.5215-10.283-4.5215zm15 6c3.7818 0 7.1742 1.0446 9.498 2.5938s3.502 3.4555 3.502 5.4062-1.1782 3.857-3.502 5.4062c-2.323 1.5486-5.714 2.593-9.4941 2.5938-1.4623-0.0028-2.9147-0.1619-4.2891-0.46875a2.0002 2.0002 0 0 0-1.9063 0.5957c-1.413 1.5311-3.2296 2.6357-5.2578 3.2715 0.53082-1.6709 0.85418-3.5406 1.0703-5.543a2.0002 2.0002 0 0 0-0.5957-1.6504c-1.399-1.3589-2.0204-2.7981-2.0254-4.207 7.365e-4 -1.9501 1.1789-3.8556 3.502-5.4043 2.3238-1.5492 5.7162-2.5938 9.498-2.5938z"/><path d="m10 14a2 2 0 0 0-2 2 2 2 0 0 0 2 2 2 2 0 0 0 2-2 2 2 0 0 0-2-2zm6 0a2 2 0 0 0-2 2 2 2 0 0 0 2 2 2 2 0 0 0 2-2 2 2 0 0 0-2-2zm6 0a2 2 0 0 0-2 2 2 2 0 0 0 2 2 2 2 0 0 0 2-2 2 2 0 0 0-2-2z"/></svg>
