<svg enable-background="new 0 0 512.005 512.005" version="1.1" viewBox="0 0 512 512" xml:space="preserve" xmlns="http://www.w3.org/2000/svg">
<path d="m332.03 31.529c-7.776-23.936-33.504-37.056-57.472-29.28s-37.056 33.504-29.28 57.472l117.92 362.85c8.096 22.368 32.256 34.944 55.488 28.288 24.192-6.976 38.976-32.672 31.232-56.448-0.288-0.928-117.89-362.88-117.89-362.88z"/>
<path d="m149.31 90.921c-7.808-23.968-33.536-37.088-57.472-29.28s-37.088 33.504-29.28 57.472l117.92 362.82c8.096 22.368 32.256 34.944 55.488 28.288 24.192-6.976 38.976-32.672 31.232-56.448-0.288-0.896-117.89-362.85-117.89-362.85z"/>
<path d="m480.48 332.04c23.968-7.776 37.056-33.504 29.28-57.472s-33.504-37.056-57.472-29.28l-362.85 117.95c-22.368 8.096-34.944 32.256-28.288 55.488 6.976 24.192 32.672 38.976 56.448 31.232 0.928-0.32 362.88-117.92 362.88-117.92z"/>
<path d="m165.06 434.54c23.616-7.68 54.048-17.568 86.72-28.192-7.68-23.616-17.568-54.048-28.192-86.72l-86.72 28.192 28.192 86.72z"/>
<path d="m347.81 375.14c32.8-10.656 63.264-20.544 86.72-28.192-7.68-23.616-17.568-54.08-28.192-86.752l-86.72 28.192 28.192 86.752z"/>
<path d="m421.09 149.32c23.968-7.776 37.056-33.504 29.28-57.472s-33.504-37.056-57.472-29.28l-362.82 117.92c-22.4 8.096-34.976 32.256-28.288 55.488 6.976 24.192 32.672 38.944 56.448 31.232 0.896-0.288 362.85-117.89 362.85-117.89z"/>
<path d="m105.67 251.78c23.616-7.68 54.08-17.568 86.752-28.192-10.656-32.768-20.544-63.232-28.192-86.72l-86.72 28.192 28.16 86.72z"/>
<path d="m288.42 192.42c32.8-10.656 63.264-20.544 86.752-28.192-10.656-32.8-20.576-63.264-28.192-86.752l-86.752 28.192 28.192 86.752z"/>
</svg>
