<svg enable-background="new 0 0 1000 1000" version="1.1" viewBox="0 0 1e3 1e3" xml:space="preserve" xmlns="http://www.w3.org/2000/svg">
<path d="m500 10c-270.6 0-490 219.4-490 490s219.4 490 490 490 490-219.4 490-490-219.4-490-490-490zm0 898.3c-193.5 0-355.7-135.4-397.5-316.4l153.2 64.4c10 50.4 54.6 89.1 109 88.7 60.3-0.6 108.7-49.4 109.1-109.5 0-0.1 0.2-0.1 0.2-0.2l126-93.9c80.7 0.9 144.9-64.1 144.9-143.1 0-79.1-64.2-143.3-143.2-143.3-78.2 0-141.7 62.7-143.2 140.5l-92.4 129.3c-23.4-0.5-44.4 5.9-62.7 17.9l-209.2-88c22.8-203.9 196-363 405.8-363 225.1 0 408.3 183.2 408.3 408.3s-183.2 408.3-408.3 408.3zm-112.4-330.3-54-22.7c10.2-3.8 20.1-5.6 30.1-5.6 46.5 0 84.7 37.8 85.1 84.3 0.4 47.1-37.2 85.5-84.4 85.9-35.4 0.1-65.4-21-78.7-51l54.1 22.7c31.4 13.2 67.5-1.5 80.7-33 13.3-31.2-1.5-67.4-32.9-80.6zm116.8-179.7c0-53.7 43.7-97.4 97.3-97.4 53.7 0 97.3 43.7 97.3 97.4s-43.7 97.4-97.3 97.4c-53.6-0.1-97.3-43.8-97.3-97.4zm97.4 73.5c-40.6 0-73.6-33-73.6-73.5s33-73.6 73.6-73.6 73.5 33 73.5 73.6c0 40.5-33 73.5-73.5 73.5z"/>
</svg>
