<svg enable-background="new 0 0 512.005 512.005" version="1.1" viewBox="0 0 512 512" xml:space="preserve" xmlns="http://www.w3.org/2000/svg">
<path d="m257.09 4.5231a252.56 252.56 0 0 0-252.56 252.56 252.56 252.56 0 0 0 252.56 252.56 252.56 252.56 0 0 0 252.56-252.56 252.56 252.56 0 0 0-252.56-252.56zm106.86 147.56c7.0395-0.15716 14.815 2.7178 13.583 16.678-0.72997 10.219-6.5691 45.987-12.409 84.675l-18.249 114.6s-1.459 16.788-13.868 19.708c-12.409 2.9198-32.849-10.22-36.499-13.139-2.9198-2.1899-54.747-35.037-73.725-51.096-5.1097-4.3798-10.949-13.14 0.73069-23.36 26.278-24.088 57.666-54.016 76.644-72.995 8.7595-8.7594 17.52-29.199-18.977-4.3804l-102.93 69.347s-11.678 7.2984-33.576 0.72887c-21.899-6.5696-47.448-15.328-47.448-15.328s-17.518-10.95 12.411-22.629l170.08-70.076c16.789-7.2996 73.725-30.657 73.725-30.657s5.03-1.957 10.505-2.0792z" stroke-width="7.2995"/></svg>
