<svg enable-background="new 0 0 512.005 512.005" version="1.1" viewBox="0 0 512 512" xml:space="preserve" xmlns="http://www.w3.org/2000/svg"><g fill="#000002" stroke-width=".75345">
<path d="m225.06 252.11c0-7.2952-1.3475-15.259-5.5856-21.376-8.4974-12.262-26.739-16.162-39.436-8.4349-6.4179 3.9086-9.987 10.732-11.999 17.738-3.995 13.911-2.1631 29.786 0.63068 43.757 0.89292 4.4681 1.8152 8.9427 3.0685 13.329 0.45274 1.5822 0.66233 3.8813 1.6914 5.1974 1.7961 2.3011 6.181 2.9675 8.8696 2.5149 8.0672-1.3559 6.07-14.639 5.7954-20.287-0.64346-13.23-4.542-26.071-0.76505-39.23 1.5993-5.5683 4.6887-11.83 10.312-14.249 5.0765-2.1858 10.199 0.48829 12.209 5.4468 3.2548 8.0288 2.4416 17.298 4.4831 25.651 0.69377 2.8397 1.4567 5.6521 2.7374 8.2993 0.37099 0.7649 0.88245 2.3556 1.9576 2.2591 2.6137-0.23889 6.3299-4.6 8.2895-6.2179 6.3299-5.2309 12.834-10.832 20.122-14.704 3.429-1.8212 9.0716-4.7698 12.574-1.6724 0.89269 0.79007 1.6116 1.7332 2.2509 2.7328 4.1165 6.4485 0.0293 11.472-2.647 17.604-3.4647 7.9361-7.015 15.793-12.035 22.885-4.3156 6.0985-10.214 11.445-13.662 18.107-2.2197 4.2899-3.4752 8.9909-2.5571 13.832 0.74408 3.9148 3.7791 6.2787 7.7719 5.3608 2.9889-0.68738 5.0136-3.2484 6.7176-5.6123 3.0371-4.2165 5.8582-8.5924 8.8764-12.826 5.8394-8.1878 12.729-15.844 17.64-24.645 5.919-10.611 8.774-22.617 8.7672-34.703-3e-3 -9.877-3.586-24.972-15.091-27.043-2.165-0.3877-4.6405-0.17604-6.791 0.19909-2.6722 0.46525-5.355 1.335-7.7967 2.517-6.5415 3.1645-12.198 7.8902-17.059 13.264-3.0326 3.349-5.7491 7.5616-9.3481 10.311"/><path d="m214.25 7.7817c-9.0716 1.1925-18.294 1.0688-27.411 2.4771-17.468 2.6972-34.196 8.123-50.555 14.668-5.9568 2.3824-11.834 5.0376-17.606 7.8314-2.1481 1.0398-5.4245 1.8716-7.1516 3.5397-0.89894 0.86948-0.80672 2.9068-0.9159 4.0694-0.30371 3.2715-0.71246 6.5392-1.0291 9.8084-1.2218 12.616-2.0832 25.614-0.27651 38.222 0.58477 4.0741 1.8508 11.464 6.8581 12.245 7.7003 1.2051 13.683-8.2699 17.461-13.503 8.8259-12.219 18.868-23.597 33.343-29.061 17.039-6.4322 36.553-7.9474 54.576-9.1838 50.578-3.4663 105.85 5.7716 143.11 43.025 5.2986 5.298 10.314 10.921 14.579 17.101 16.682 24.155 25.504 51.621 29.752 80.469 1.9975 13.545 3.362 27.251 0.27248 40.738-5.3616 23.401-19.419 43.769-35.573 61.109-11.056 11.868-23.498 22.596-36.447 32.347-7.2291 5.4426-15.337 10.059-22.133 16.009-7.8284 6.853-14.34 15.428-19.289 24.572-13.318 24.621-16.889 54.246-12.972 81.727 0.80273 5.6332 1.528 11.293 2.8044 16.849 0.38147 1.6619 0.44855 4.5184 1.5238 5.8764 2.0122 2.54 7.5036 3.9378 10.578 4.0867 3.2068 0.15508 5.3406-2.3095 6.1266-5.1848 1.3456-4.927 0.54076-10.384-0.23894-15.34-1.5972-10.151-3.0602-20.375-2.6074-30.679 0.83422-19.027 8.1908-36.756 21.379-50.547 13.412-14.025 31.527-22.112 46.77-33.86 30.719-23.677 58.239-55.622 68.807-93.639 3.777-13.595 5.0282-28.001 3.3033-41.996-2.1798-17.702-8.6542-35.384-14.753-52.055-18.588-50.805-50.481-99.132-101.12-122.38-20.095-9.226-41.116-13.426-62.876-16.456-10.209-1.4211-20.411-2.2929-30.681-2.7435-5.7112-0.24938-11.92-0.88229-17.608-0.13412"/><path d="m135.02 336.71c-9.8702 1.4125-12.739 9.324-10.916 18.249 2.335 11.422 11.318 20.134 20.22 26.995 22.806 17.579 52.263 27.081 80.981 25.823 11.207-0.4904 23.417-2.343 33.701-7.0982 5.5145-2.5484 11.283-11.73 3.7728-15.659-1.0291-0.5386-2.3746-0.87181-3.5213-1.0604-3.28-0.5365-6.9524 0.85924-10.061 1.752-5.481 1.5739-10.957 3.1854-16.6 4.0908-16.858 2.7077-35.087-1.1443-49.044-11.132-11.289-8.077-20.415-18.731-29.03-29.498-5.2734-6.5852-10.04-13.818-19.517-12.462"/><path d="m122.19 392.54c-2.511 0.33112-5.3909 0.23682-7.5413 1.8149-4.4854 3.2924 0.45483 9.9147 2.8149 12.916 6.8432 8.6948 15.854 15.913 24.846 22.275 25.068 17.732 53.464 27.961 84.002 30.054 8.78 0.60147 17.723-0.023 26.407-1.4691 3.1752-0.53022 7.1263-0.76912 10.061-2.1397 8.3038-3.8834 5.9021-19.569-1.5091-23.057-3.2362-1.5215-8.4281 0.4883-11.822 0.95983-8.0258 1.1191-16.074 1.2322-24.146 1.0352-21.155-0.51765-43.69-7.0332-62.123-17.315-7.2458-4.0448-13.9-8.9653-20.122-14.441-3.7832-3.3301-7.6694-8.7792-12.576-10.462-2.2846-0.78381-5.9235-0.4862-8.3-0.17394"/><path d="m127.22 439.57c-3.5755 0.40026-6.271 2.2655-8.6225 4.9186-1.6202 1.8274-3.1586 3.4789-4.0893 5.7842-5.1309 12.692 8.5472 24.673 17.994 30.666 10.513 6.6686 21.999 11.612 33.701 15.777 26.393 9.3933 57.348 15.406 84.756 7.0081 8.1471-2.4939 16.2-7.0542 22.123-13.218 3.3366-3.4726 5.6275-8.731-0.49256-10.954-3.6261-1.3161-8.0295 2.0349-11.318 3.3594-7.7636 3.131-15.812 5.5075-24.146 6.5156-10.976 1.3308-20.859-1.0856-31.438-3.7324-9.0362-2.2592-18.174-4.5184-26.91-7.7749-7.4533-2.7789-14.857-6.0797-21.378-10.694-1.9493-1.379-4.2842-2.6071-5.8813-4.4031-5.2211-5.8743-9.1446-12.748-14.743-18.335-2.4187-2.4143-5.856-5.3315-9.5575-4.9186"/></g></svg>
