<svg enable-background="new 0 0 512.005 512.005" version="1.1" viewBox="0 0 512 512" xml:space="preserve" xmlns="http://www.w3.org/2000/svg">
<path d="m486.16 79.961c0 25.302-11.363 47.784-28.682 61.422l-168.12 150.14c-3.1222 2.6764-7.1814-1.6395-4.9289-5.2411l61.667-123.47c1.7279-3.4568-0.51234-7.7056-4.0591-7.7056h-239.19c-37.045 0-67.355-33.811-67.355-75.127 0-41.327 30.31-75.127 67.355-75.127h315.95c37.045-0.020109 67.355 33.789 67.355 75.105zm-383.31 427.19h315.95c37.045 0 67.355-33.811 67.355-75.127 0-41.327-30.31-75.127-67.355-75.127h-239.19c-3.5462 0-5.7876-4.2486-4.0591-7.7056l61.667-123.47c2.2525-3.6018-1.8062-7.9175-4.9289-5.2411l-168.12 150.12c-17.318 13.627-28.682 36.119-28.682 61.422 0 41.316 30.31 75.127 67.355 75.127z" stroke-width="1.1151"/></svg>
