<svg width="32" height="32" enable-background="new 0 0 595.275 311.111" version="1.1" viewBox="0 0 32 32" xml:space="preserve" xmlns="http://www.w3.org/2000/svg"><rect y="-5.2588e-6" width="32" height="32" fill="#0082c9"/><path d="m15.999 6.0319a9.9654 9.9654 0 0 0-9.9654 9.9654 9.9654 9.9654 0 0 0 9.9654 9.9654 9.9654 9.9654 0 0 0 5.1692-1.4576c1.2248 0.4867 3.9681 1.9306 4.621 1.3069 0.68229-0.65159-0.80101-3.7183-1.1567-4.8579a9.9654 9.9654 0 0 0 1.3313-4.9565 9.9654 9.9654 0 0 0-9.9654-9.9646zm0.0012 3.7888a6.1791 6.1792 0 0 1 6.1791 6.1791 6.1791 6.1792 0 0 1-6.1791 6.1791 6.1791 6.1792 0 0 1-6.1791-6.1791 6.1791 6.1792 0 0 1 6.1791-6.1791z" fill="#fff" stroke-width=".19932"/></svg>
