<?xml version="1.0" encoding="UTF-8" standalone="no"?>
<svg
   xmlns:dc="http://purl.org/dc/elements/1.1/"
   xmlns:cc="http://creativecommons.org/ns#"
   xmlns:rdf="http://www.w3.org/1999/02/22-rdf-syntax-ns#"
   xmlns:svg="http://www.w3.org/2000/svg"
   xmlns="http://www.w3.org/2000/svg"
   xmlns:sodipodi="http://sodipodi.sourceforge.net/DTD/sodipodi-0.dtd"
   xmlns:inkscape="http://www.inkscape.org/namespaces/inkscape"
   version="1.1"
   xml:space="preserve"
   height="32"
   width="32"
   enable-background="new 0 0 595.275 311.111"
   y="0px"
   x="0px"
   viewBox="0 0 32 32"
   id="svg6"
   sodipodi:docname="changelog.svg"
   inkscape:version="0.92.3 (2405546, 2018-03-11)"><metadata
     id="metadata12"><rdf:RDF><cc:Work
         rdf:about=""><dc:format>image/svg+xml</dc:format><dc:type
           rdf:resource="http://purl.org/dc/dcmitype/StillImage" /></cc:Work></rdf:RDF></metadata><defs
     id="defs10" /><sodipodi:namedview
     pagecolor="#ffffff"
     bordercolor="#666666"
     borderopacity="1"
     objecttolerance="10"
     gridtolerance="10"
     guidetolerance="10"
     inkscape:pageopacity="0"
     inkscape:pageshadow="2"
     inkscape:window-width="1920"
     inkscape:window-height="1081"
     id="namedview8"
     showgrid="false"
     inkscape:zoom="7.375"
     inkscape:cx="16"
     inkscape:cy="16"
     inkscape:window-x="1920"
     inkscape:window-y="27"
     inkscape:window-maximized="1"
     inkscape:current-layer="svg6" /><rect
     height="32"
     width="32"
     y="-5.2587998e-06"
     x="0"
     id="rect2"
     style="fill:#0082c9" /><path
     d="m 15.999199,6.0318983 a 9.9654149,9.9654149 0 0 0 -9.965415,9.9654147 9.9654149,9.9654149 0 0 0 9.965415,9.965415 9.9654149,9.9654149 0 0 0 5.169159,-1.457563 c 1.224769,0.486701 3.968061,1.930628 4.621016,1.306907 0.682289,-0.651593 -0.801012,-3.718323 -1.156666,-4.857881 a 9.9654149,9.9654149 0 0 0 1.331324,-4.956546 9.9654149,9.9654149 0 0 0 -9.965414,-9.964584 z m 0.0012,3.7888343 a 6.1790721,6.1792383 0 0 1 6.179072,6.1790724 6.1790721,6.1792383 0 0 1 -6.179072,6.179072 6.1790721,6.1792383 0 0 1 -6.1790725,-6.179072 6.1790721,6.1792383 0 0 1 6.1790725,-6.1790724 z"
     id="path4"
     inkscape:connector-curvature="0"
     style="fill:#ffffff;stroke-width:0.19932491" /></svg>