<svg width="16" height="16" fill="none" viewBox="0 0 16 16" xmlns="http://www.w3.org/2000/svg"><path d="m14.963 8.4582-0.9054-0.87055c-0.0504-0.04759-0.1315-0.04759-0.181 0l-5.733 5.5121c-1.2809 1.2316-3.3649 1.2316-4.6467 0-1.2809-1.2315-1.2809-3.2352 0-4.4668l6.3364-6.0922c0.78254-0.7524 2.0541-0.7524 2.8358 0 0.7825 0.75158 0.7825 1.9741 0 2.7265l-6.1478 5.9101c-0.28247 0.2724-0.74245 0.2724-1.0258 0-0.28247-0.2716-0.28161-0.713 8.6e-4 -0.9854l5.5445-5.33c0.0504-0.04759 0.0495-0.12636-8e-4 -0.17477l-0.9046-0.86973c-0.0512-0.04841-0.1315-0.04841-0.18095 0l-5.5445 5.33c-0.88155 0.84758-0.88155 2.2276 0 3.0752s2.317 0.8476 3.1985 0l6.1478-5.9101c1.3799-1.3276 1.3799-3.4888 0-4.8155-1.3816-1.3292-3.6286-1.3292-5.0094-8.2e-4l-6.3364 6.0914c-1.88 1.8084-1.8792 4.7499 0 6.5566 1.88 1.8076 4.9403 1.8076 6.8195 8e-4l5.7331-5.5121c0.0504-0.0484 0.0504-0.12635 0-0.17476z" clip-rule="evenodd" fill="#fff" fill-rule="evenodd"/><mask id="a" x="1" y="0" width="15" height="16" mask-type="alpha" maskUnits="userSpaceOnUse"><path d="m14.963 8.4582-0.9054-0.87055c-0.0504-0.04759-0.1315-0.04759-0.181 0l-5.733 5.5121c-1.2809 1.2316-3.3649 1.2316-4.6467 0-1.2809-1.2315-1.2809-3.2352 0-4.4668l6.3364-6.0922c0.78254-0.7524 2.0541-0.7524 2.8358 0 0.7825 0.75158 0.7825 1.9741 0 2.7265l-6.1478 5.9101c-0.28247 0.2724-0.74245 0.2724-1.0258 0-0.28247-0.2716-0.28161-0.713 8.6e-4 -0.9854l5.5445-5.33c0.0504-0.04759 0.0495-0.12636-8e-4 -0.17477l-0.9046-0.86973c-0.0512-0.04841-0.1315-0.04841-0.18095 0l-5.5445 5.33c-0.88155 0.84758-0.88155 2.2276 0 3.0752s2.317 0.8476 3.1985 0l6.1478-5.9101c1.3799-1.3276 1.3799-3.4888 0-4.8155-1.3816-1.3292-3.6286-1.3292-5.0094-8.2e-4l-6.3364 6.0914c-1.88 1.8084-1.8792 4.7499 0 6.5566 1.88 1.8076 4.9403 1.8076 6.8195 8e-4l5.7331-5.5121c0.0504-0.0484 0.0504-0.12635 0-0.17476z" clip-rule="evenodd" fill="#fff" fill-rule="evenodd"/></mask><g mask="url(#a)"><rect width="16" height="16" fill="#000" opacity=".5"/></g></svg>
