<svg width="16" height="16" fill="none" viewBox="0 0 16 16" xmlns="http://www.w3.org/2000/svg"><path d="m8 0.8c-3.97 0-7.2 3.23-7.2 7.2s3.23 7.2 7.2 7.2c3.97 0 7.2-3.229 7.2-7.2s-3.23-7.2-7.2-7.2zm0 13.2c-3.314 0-6-2.686-6-6s2.686-6 6-6c3.313 0 6 2.686 6 6s-2.687 6-6 6zm-1-8.2c0 0.55229-0.44772 1-1 1-0.55229 0-1-0.44771-1-1 0-0.55228 0.44771-1 1-1 0.55228 0 1 0.44772 1 1zm4.001 0c0 0.55229-0.4477 1-1 1s-1-0.44771-1-1c0-0.55228 0.44771-1 1-1s1 0.44772 1 1zm0.749 1.8c-0.359 0-0.65 0.291-0.65 0.65 0 1.571-1.391 2.85-3.1 2.85s-3.1-1.278-3.1-2.85c0-0.359-0.291-0.65-0.65-0.65s-0.65 0.291-0.65 0.65c0 2.288 1.974 4.15 4.4 4.15 2.426 0 4.401-1.862 4.401-4.15-1e-3 -0.359-0.292-0.65-0.651-0.65z" clip-rule="evenodd" fill="#fff" fill-rule="evenodd"/><mask id="a" x="0" y="0" width="16" height="16" mask-type="alpha" maskUnits="userSpaceOnUse"><path d="m8 0.8c-3.97 0-7.2 3.23-7.2 7.2s3.23 7.2 7.2 7.2c3.97 0 7.2-3.229 7.2-7.2s-3.23-7.2-7.2-7.2zm0 13.2c-3.314 0-6-2.686-6-6s2.686-6 6-6c3.313 0 6 2.686 6 6s-2.687 6-6 6zm-1-8.2c0 0.55229-0.44772 1-1 1-0.55229 0-1-0.44771-1-1 0-0.55228 0.44771-1 1-1 0.55228 0 1 0.44772 1 1zm4.001 0c0 0.55229-0.4477 1-1 1s-1-0.44771-1-1c0-0.55228 0.44771-1 1-1s1 0.44772 1 1zm0.749 1.8c-0.359 0-0.65 0.291-0.65 0.65 0 1.571-1.391 2.85-3.1 2.85s-3.1-1.278-3.1-2.85c0-0.359-0.291-0.65-0.65-0.65s-0.65 0.291-0.65 0.65c0 2.288 1.974 4.15 4.4 4.15 2.426 0 4.401-1.862 4.401-4.15-1e-3 -0.359-0.292-0.65-0.651-0.65z" clip-rule="evenodd" fill="#fff" fill-rule="evenodd"/></mask><g mask="url(#a)"><rect width="16" height="16" fill="#000" opacity=".5"/></g></svg>
