<svg xmlns="http://www.w3.org/2000/svg" version="1.1" xml:space="preserve" height="32" width="32" enable-background="new 0 0 595.275 311.111" y="0px" x="0px" viewBox="0 0 32 32"><rect rx="5" ry="5" height="32" width="32" y="-.0000052588" x="0" fill="#0082c9"/><path d="m15.999 3.998a11.999 11.999 0 0 0 -11.999 11.999 11.999 11.999 0 0 0 11.999 11.999 11.999 11.999 0 0 0 6.224 -1.755c1.4747 0.58602 4.7778 2.3246 5.564 1.5736 0.82152-0.78456-0.96447-4.4771-1.3927-5.8492a11.999 11.999 0 0 0 1.603 -5.968 11.999 11.999 0 0 0 -11.999 -11.998zm0.0014 4.562a7.44 7.4402 0 0 1 7.44 7.44 7.44 7.4402 0 0 1 -7.44 7.44 7.44 7.4402 0 0 1 -7.44 -7.44 7.44 7.4402 0 0 1 7.44 -7.44z" stroke-width="0.24" fill="#fff"/></svg>
