<svg xmlns="http://www.w3.org/2000/svg" version="1.1" xml:space="preserve" height="128" width="128" enable-background="new 0 0 595.275 311.111" y="0px" x="0px" viewBox="0 0 128 128"><rect rx="20" ry="20" height="128" width="128" y="-.0000015" x="0" fill="#0082c9"/><path d="m63.994 15.992a47.995 47.997 0 0 0 -47.994 47.998 47.995 47.997 0 0 0 47.994 47.994 47.995 47.997 0 0 0 24.896 -7.0183c5.8988 2.3441 19.111 9.2982 22.256 6.2946 3.2861-3.1382-3.8579-17.908-5.5706-23.397a47.995 47.997 0 0 0 6.41 -23.878 47.995 47.997 0 0 0 -47.998 -47.996zm0.004 18.248a29.76 29.761 0 0 1 29.76 29.761 29.76 29.761 0 0 1 -29.76 29.761 29.76 29.761 0 0 1 -29.76 -29.761 29.76 29.761 0 0 1 29.76 -29.761z" stroke-width=".96001" fill="#fff"/></svg>
