<?xml version="1.0" encoding="UTF-8" standalone="no"?>
<svg xmlns="http://www.w3.org/2000/svg" xml:space="preserve" height="16" viewBox="0 0 16 16" width="16" version="1.1" y="0px" x="0px" enable-background="new 0 0 595.275 311.111"><path d="m2.5 0c-1.385 0-2.5 1.115-2.5 2.5v11c0 1.385 1.115 2.5 2.5 2.5h11c1.385 0 2.5-1.115 2.5-2.5v-11c0-1.385-1.115-2.5-2.5-2.5h-11zm0.5 3h6c1.108 0 2 0.892 2 2v1.334l4-3.334v10l-4-3.334v1.334c0 1.108-0.892 2-2 2h-6c-1.108 0-2-0.892-2-2v-6c0-1.108 0.892-2 2-2z"/></svg>
