<svg width="32" height="32" enable-background="new 0 0 595.275 311.111" version="1.1" viewBox="0 0 32 32" xml:space="preserve" xmlns="http://www.w3.org/2000/svg"><rect y="-5.2588e-6" width="32" height="32" rx="5" ry="5" fill="#0082c9"/><path d="m15.999 3.998a11.999 11.999 0 0 0-11.999 11.999 11.999 11.999 0 0 0 11.999 11.999 11.999 11.999 0 0 0 6.224-1.755c1.4747 0.58602 4.7778 2.3246 5.564 1.5736 0.82152-0.78456-0.96447-4.4771-1.3927-5.8492a11.999 11.999 0 0 0 1.603-5.968 11.999 11.999 0 0 0-11.999-11.998zm0.0014 4.562a7.44 7.4402 0 0 1 7.44 7.44 7.44 7.4402 0 0 1-7.44 7.44 7.44 7.4402 0 0 1-7.44-7.44 7.44 7.4402 0 0 1 7.44-7.44z" fill="#fff" stroke-width=".24"/></svg>
