<svg width="128" height="128" enable-background="new 0 0 595.275 311.111" version="1.1" viewBox="0 0 128 128" xml:space="preserve" xmlns="http://www.w3.org/2000/svg"><rect y="-1.5e-6" width="128" height="128" rx="20" ry="20" fill="#0082c9"/><path d="m63.994 15.992a47.995 47.997 0 0 0-47.994 47.998 47.995 47.997 0 0 0 47.994 47.994 47.995 47.997 0 0 0 24.896-7.0183c5.8988 2.3441 19.111 9.2982 22.256 6.2946 3.2861-3.1382-3.8579-17.908-5.5706-23.397a47.995 47.997 0 0 0 6.41-23.878 47.995 47.997 0 0 0-47.998-47.996zm4e-3 18.248a29.76 29.761 0 0 1 29.76 29.761 29.76 29.761 0 0 1-29.76 29.761 29.76 29.761 0 0 1-29.76-29.761 29.76 29.761 0 0 1 29.76-29.761z" fill="#fff" stroke-width=".96001"/></svg>
