<svg width="16" height="16" enable-background="new 0 0 595.275 311.111" version="1.1" viewBox="0 0 16 16" xml:space="preserve" xmlns="http://www.w3.org/2000/svg"><path d="m2.5 0c-1.385 0-2.5 1.115-2.5 2.5v11c0 1.385 1.115 2.5 2.5 2.5h11c1.385 0 2.5-1.115 2.5-2.5v-11c0-1.385-1.115-2.5-2.5-2.5h-11zm5.5 1.998v2e-3a5.9994 5.9996 0 0 1 5.998 5.998 5.9994 5.9996 0 0 1-0.801 2.984c0.214 0.686 1.106 2.534 0.696 2.926-0.394 0.376-2.044-0.494-2.782-0.787a5.9994 5.9996 0 0 1-3.111 0.877 5.9994 5.9996 0 0 1-6-6 5.9994 5.9996 0 0 1 6-6zm0 2.2813a3.72 3.7201 0 0 0-3.7207 3.7207 3.72 3.7201 0 0 0 3.7207 3.721 3.72 3.7201 0 0 0 3.721-3.721 3.72 3.7201 0 0 0-3.721-3.7207z"/></svg>
