<svg width="16" height="16" version="1.1" viewbox="0 0 16 16" xmlns="http://www.w3.org/2000/svg"><path d="m13.683 1.9302c-1.7747 1.1748-9.7908 6.3442-11.559 7.5293-0.39827 0.33811 0.022238 1.1076 0.5227 0.93828 0.48181-0.22942 0.89717-0.57387 1.3516-0.85148 1.3851-0.91342 9.0066-5.8291 10.384-6.7542 0.40766-0.35003-0.023761-1.1431-0.55146-0.93383-0.05505 0.018918-0.1022 0.041536-0.14802 0.072001zm-7.1442-0.36766c-1.1008-0.064982-2.2066 0.15861-3.1582 0.75781l3.3223 2.7871c1.1454-0.75401 2.2875-1.5127 3.4336-2.2656-0.15658-0.099533-0.30451-0.21195-0.46484-0.30469-0.93474-0.55594-2.032-0.90963-3.1328-0.97461zm6.2578 3.5273c-2.3982 1.5806-4.8015 3.1551-7.1992 4.7363-0.13882 0.084802-0.26953 0.1831-0.40625 0.27148l-2.7734 4.377 7.4727-6.8105 3.668 3.0605c0.27366 0.29472 0.77617 0.69201 0.90039 0.03906 0.57622-1.3354 0.26219-2.8828-0.45508-4.0996-0.35014-0.56293-0.76498-1.0799-1.207-1.5742z"/></svg>
